# xmcd CD database file
#
# Track frame offsets:
#	150
#	17135
#	34762
#	51747
#
# Disc length: 924 seconds
#
# Revision: 0
# Processed by: cddbd v1.5PL3 Copyright (c) Steve Scherf et al.
# Submitted via: CDex 1.51
#
DISCID=32039a04
DTITLE=MAHO堂 - おジャ魔女はココにいる
DYEAR=2000
DGENRE=Anime
TTITLE0=おジャ魔女はココにいる
TTITLE1=声をきかせて
TTITLE2=おジャ魔女はココにいる(カラオケ)
TTITLE3=声をきかせて(カラオケ)
EXTD=YEAR: 2000
EXTT0=
EXTT1=
EXTT2=
EXTT3=
PLAYORDER=
